<svg xmlns="http://www.w3.org/2000/svg" version="1.1" xmlns:xlink="http://www.w3.org/1999/xlink" xmlns:svgjs="http://svgjs.com/svgjs" width="325" height="300" overflow="visible">
  <g class="signage-logo" opacity="1">
    <defs id="SvgjsDefs1002"/>
    <g id="SvgjsG1008" transform="scale(1.0417690417690417)" opacity="1">
      <g id="SvgjsG1009" class="pS306bKCQ" transform="translate(77.87023600319166, -0.4689367265809007) scale(1.552760115956048)" light-content="false" non-strokable="false" fill="#e9891c">
        <path d="M62 28.5a14.099 14.099 0 1 0-5.395-27.125 14.094 14.094 0 0 0-8.707 13.023C47.953 22.164 54.234 28.445 62 28.5zM52 14.398c0-4.043 2.438-7.688 6.172-9.238a10.002 10.002 0 0 1 13.066 13.066A9.997 9.997 0 0 1 62 24.398c-5.485-.055-9.899-4.516-9.899-10zm26.801 43.301a21.199 21.199 0 0 0-21.2 21.235 21.192 21.192 0 0 0 6.243 14.992 21.209 21.209 0 0 0 15.023 6.176 21.208 21.208 0 0 0 14.984-6.27A21.204 21.204 0 0 0 78.8 57.699zm17 21.102a16.902 16.902 0 0 1-33.8.067 16.91 16.91 0 0 1 4.89-11.957 16.895 16.895 0 0 1 11.91-5.012 16.918 16.918 0 0 1 12.016 4.914A16.926 16.926 0 0 1 95.8 78.801z"/>
        <path d="M82.699 44.5L60.601 40 47.398 26.102h-2.3l-30 19v3.3L48.6 63.2l-7.199 9.398-.004.004a21.195 21.195 0 0 0-34.231-9.867A21.2 21.2 0 1 0 42.3 78.8l11.5-15-.699-3.2-32.203-14.5 24.8-15.6 12.2 12.898 1 .5 23 4.7zM38.101 78.801a16.89 16.89 0 0 1-4.953 11.949 16.897 16.897 0 0 1-23.898 0 16.896 16.896 0 0 1 0-23.898 16.89 16.89 0 0 1 23.898 0A16.884 16.884 0 0 1 38.1 78.801z"/>
      </g>
      <g id="SvgjsG1010" class="text" transform="translate(156.47999572753906, 284.90179729061185) scale(1)" light-content="false" fill="#1a1a1a">
        <path d="M-96.25 -86.83L-156.48 -86.83L-156.48 -77.71L-131.97 -77.71L-131.97 0L-120.76 0L-120.76 -77.71L-96.25 -77.71Z M21.61 -86.83L9.3 -86.83L-7.45 -13.3L-28.02 -86.83L-40.46 -86.83L-61.03 -13.06L-77.65 -86.83L-90.09 -86.83L-67.92 0L-54.25 0L-34.18 -70.94L-14.1 0L-0.43 0Z M46 -77.71L82.7 -77.71L82.7 -86.83L34.79 -86.83L34.79 0L82.7 0L82.7 -9.11L46 -9.11L46 -39.41L79.01 -39.41L79.01 -48.03L46 -48.03Z M108.32 -34.98L124.7 -34.98C134.31 -34.98 141.66 -37.26 146.75 -41.81C151.84 -46.37 154.38 -52.71 154.38 -60.84C154.38 -68.89 151.92 -75.23 146.99 -79.87C142.07 -84.51 134.64 -86.83 124.7 -86.83L97.11 -86.83L97.11 0L108.32 0ZM138.43 -48.65C135.44 -45.77 130.53 -44.34 123.71 -44.34L108.32 -44.34L108.32 -77.47L123.71 -77.47C130.53 -77.47 135.44 -76.05 138.43 -73.22C141.43 -70.39 142.93 -66.26 142.93 -60.84C142.93 -55.59 141.43 -51.52 138.43 -48.65Z"/>
      </g>
    </g>
  </g>
</svg>
