<svg xmlns="http://www.w3.org/2000/svg" xmlns:xlink="http://www.w3.org/1999/xlink" version="1.1" width="300" height="300" viewBox="0 0 300 300" xml:space="preserve">
<desc>Created with Fabric.js 3.6.6</desc>
<defs>
</defs>
<g transform="matrix(1.21 0 0 1.22 149.2 150.62)"  >
<g style=""   >
		<g transform="matrix(2.44 0 0 2.44 58.62 0)" id="SvgjsG1009"  >
<path style="stroke: none; stroke-width: 1; stroke-dasharray: none; stroke-linecap: butt; stroke-dashoffset: 0; stroke-linejoin: miter; stroke-miterlimit: 4; fill: rgb(233,137,28); fill-rule: nonzero; opacity: 1;"  transform=" translate(-73.95, -50.2)" d="M 62 28.5 a 14.099 14.099 0 1 0 -5.395 -27.125 a 14.094 14.094 0 0 0 -8.707 13.023 C 47.953 22.164 54.234 28.445 62 28.5 z M 52 14.398 c 0 -4.043 2.438 -7.688 6.172 -9.238 a 10.002 10.002 0 0 1 13.066 13.066 A 9.997 9.997 0 0 1 62 24.398 c -5.485 -0.055 -9.899 -4.516 -9.899 -10 z m 26.801 43.301 a 21.199 21.199 0 0 0 -21.2 21.235 a 21.192 21.192 0 0 0 6.243 14.992 a 21.209 21.209 0 0 0 15.023 6.176 a 21.208 21.208 0 0 0 14.984 -6.27 A 21.204 21.204 0 0 0 78.8 57.699 z m 17 21.102 a 16.902 16.902 0 0 1 -33.8 0.067 a 16.91 16.91 0 0 1 4.89 -11.957 a 16.895 16.895 0 0 1 11.91 -5.012 a 16.918 16.918 0 0 1 12.016 4.914 A 16.926 16.926 0 0 1 95.8 78.801 z" stroke-linecap="round" />
</g>
		<g transform="matrix(2.44 0 0 2.44 -21.13 31.28)" id="SvgjsG1009"  >
<path style="stroke: none; stroke-width: 1; stroke-dasharray: none; stroke-linecap: butt; stroke-dashoffset: 0; stroke-linejoin: miter; stroke-miterlimit: 4; fill: rgb(233,137,28); fill-rule: nonzero; opacity: 1;"  transform=" translate(-41.3, -63.01)" d="M 82.699 44.5 L 60.601 40 L 47.398 26.102 h -2.3 l -30 19 v 3.3 L 48.6 63.2 l -7.199 9.398 l -0.004 0.004 a 21.195 21.195 0 0 0 -34.231 -9.867 A 21.2 21.2 0 1 0 42.3 78.8 l 11.5 -15 l -0.699 -3.2 l -32.203 -14.5 l 24.8 -15.6 l 12.2 12.898 l 1 0.5 l 23 4.7 z M 38.101 78.801 a 16.89 16.89 0 0 1 -4.953 11.949 a 16.897 16.897 0 0 1 -23.898 0 a 16.896 16.896 0 0 1 0 -23.898 a 16.89 16.89 0 0 1 23.898 0 A 16.884 16.884 0 0 1 38.1 78.801 z" stroke-linecap="round" />
</g>
</g>
</g>
</svg>