<?xml version="1.0" standalone="no"?>
<!DOCTYPE svg PUBLIC "-//W3C//DTD SVG 20010904//EN"
 "http://www.w3.org/TR/2001/REC-SVG-20010904/DTD/svg10.dtd">
<svg version="1.0" xmlns="http://www.w3.org/2000/svg"
 width="700.000000pt" height="700.000000pt" viewBox="0 0 700.000000 700.000000"
 preserveAspectRatio="xMidYMid meet">
<metadata>
Created by potrace 1.14, written by Peter Selinger 2001-2017
</metadata>
<g transform="translate(0.000000,700.000000) scale(0.100000,-0.100000)"
fill="#000000" stroke="none">
<path d="M4112 6930 c-467 -106 -785 -519 -767 -995 15 -399 270 -746 648
-885 218 -80 465 -74 687 16 320 129 562 450 596 789 26 249 -30 473 -166 676
-51 76 -179 204 -252 253 -81 53 -214 113 -303 137 -115 30 -330 34 -443 9z
m327 -275 c11 -3 28 -7 38 -10 188 -37 376 -195 463 -388 66 -148 77 -352 27
-499 -131 -382 -532 -575 -897 -431 -185 74 -334 229 -401 419 -30 88 -48 238
-37 321 33 249 214 474 450 559 99 36 288 51 357 29z"/>
<path d="M3030 5085 c-101 -65 -346 -222 -719 -460 -229 -146 -503 -321 -681
-435 -102 -66 -195 -125 -207 -132 -13 -7 -95 -60 -183 -116 l-161 -104 3
-115 3 -115 660 -294 c363 -162 669 -298 680 -303 23 -11 27 -13 553 -246 221
-99 402 -183 402 -188 0 -4 -5 -13 -10 -20 -6 -7 -83 -106 -170 -222 -88 -115
-163 -214 -167 -220 -5 -5 -22 -28 -38 -50 -17 -22 -46 -61 -66 -87 l-36 -46
-33 86 c-157 418 -481 735 -900 880 -75 26 -115 36 -220 57 -174 35 -419 24
-605 -25 -135 -36 -151 -42 -265 -97 -155 -75 -276 -159 -390 -273 -110 -110
-126 -128 -190 -224 -296 -440 -338 -993 -113 -1466 83 -173 157 -276 303
-420 385 -380 945 -512 1466 -345 119 38 308 136 407 211 141 106 250 219 343
355 142 209 235 472 250 707 3 48 7 96 9 107 2 11 182 254 399 540 217 285
393 522 391 525 -2 4 -7 22 -10 41 -4 19 -8 39 -9 44 -1 6 -8 36 -15 68 l-13
58 -76 36 c-43 19 -115 53 -160 74 -46 21 -85 39 -87 39 -2 0 -41 17 -87 39
-162 75 -219 101 -223 101 -2 0 -41 18 -87 39 -46 22 -204 94 -353 161 -148
67 -292 132 -320 145 -27 13 -99 46 -160 73 -139 63 -170 77 -390 177 -99 45
-199 90 -222 100 -49 21 -52 29 -20 46 19 11 68 41 227 144 93 60 164 104 390
247 135 85 297 188 360 228 63 40 144 92 180 115 36 22 125 79 198 125 141 90
142 91 252 159 l72 44 24 -28 c13 -16 75 -83 138 -149 121 -129 130 -139 301
-321 61 -64 130 -138 155 -164 25 -26 83 -89 130 -140 81 -88 132 -125 191
-136 13 -3 36 -7 50 -10 19 -3 359 -73 534 -110 71 -14 133 -27 155 -31 14 -3
68 -14 120 -25 431 -90 676 -139 686 -135 6 2 14 22 17 43 7 45 14 82 27 143
16 77 16 93 0 95 -8 1 -51 10 -95 19 -44 10 -91 19 -105 22 -14 2 -45 9 -70
14 -25 5 -56 12 -70 14 -14 3 -57 11 -95 20 -39 8 -82 17 -95 20 -56 11 -824
169 -885 182 -11 2 -36 7 -55 10 -23 5 -49 21 -74 48 -21 23 -68 73 -105 111
-36 39 -129 138 -206 219 -77 82 -156 166 -175 186 -19 20 -87 92 -150 159
-63 68 -142 151 -175 186 l-60 63 -80 1 -80 0 -115 -74z m-1328 -2431 c193
-36 383 -123 528 -240 99 -80 227 -235 292 -354 107 -196 157 -441 136 -665
-28 -286 -142 -530 -343 -731 -248 -248 -599 -371 -944 -331 -261 30 -497 145
-686 332 -497 492 -456 1312 89 1749 99 80 199 137 322 184 77 30 100 36 169
48 17 3 46 9 65 14 57 12 294 9 372 -6z"/>
<path d="M5300 2954 c-547 -71 -985 -413 -1191 -931 -29 -74 -74 -243 -85
-321 -10 -68 -13 -336 -4 -382 5 -25 11 -64 14 -85 19 -143 109 -380 198 -525
65 -105 205 -267 299 -346 214 -178 488 -299 754 -332 78 -9 314 -9 387 1 187
24 418 111 585 219 69 45 231 177 268 220 118 133 200 253 260 381 39 82 82
195 90 237 2 8 10 42 18 75 24 96 28 131 32 295 4 144 -1 193 -31 360 -12 68
-76 246 -121 335 -72 143 -158 261 -278 380 -125 125 -243 210 -395 283 -255
124 -531 170 -800 136z m425 -309 c207 -43 415 -157 569 -313 101 -102 155
-176 215 -294 94 -183 131 -349 126 -563 -3 -130 -6 -159 -19 -203 -3 -9 -7
-28 -10 -42 -25 -146 -150 -377 -277 -514 -233 -252 -541 -381 -884 -371 -137
4 -224 19 -341 59 -417 142 -728 525 -781 961 -69 560 289 1103 832 1260 110
32 121 34 225 41 47 4 86 7 87 8 7 6 192 -15 258 -29z"/>
</g>
</svg>
