<svg xmlns="http://www.w3.org/2000/svg" version="1.1" xlink="http://www.w3.org/1999/xlink" xmlns:svgjs="http://svgjs.com/svgjs" width="100%" height="100%" viewBox="10.163999557495117 -0.00045013427734375 79.66799926757812 100.00045013427734">
  <g stroke="#000" stroke-width="0.5px">
    <g fill="#e9221c">
      <path d="M50.297 0C33.324.078 16.231 10.371 10.164 30.887c6.61 11.48 13.184 23.082 19.758 34.621L50 100l12.266-21.074.012-.004 7.808-13.414c6.871-12.062 13.848-24.328 19.746-34.62C84.38 10.218 67.398-.079 50.293 0zM42.16 16.625c.422.004.79.012 1.13.047.339.035.671.086 1.034.254.364.164.746.504.946.887.398.761.289 1.332.25 2.011-.016.305-.024.813-.043 1.196H57.2c.414 0 .816.058 1.207.16l.8-1.707h-3.351.004a1.31 1.31 0 0 1-1.328-1.305c0-.352.14-.688.39-.93.25-.246.586-.383.938-.375h9.168c.351-.008.691.13.941.375a1.3 1.3 0 0 1 0 1.86 1.32 1.32 0 0 1-.941.375H62.09l-1.414 3.015c.29.297.547.633.754 1.004l2.793 4.965c.879-.258 1.793-.441 2.754-.441 5.46 0 9.914 4.457 9.914 9.918 0 5.46-4.453 9.914-9.914 9.914-5.047 0-9.184-3.817-9.793-8.703h-3.07a4.838 4.838 0 0 1-4.23-2.473L43.57 25.457l-3.79 5.265c1.926 1.813 3.149 4.364 3.149 7.204 0 5.46-4.457 9.914-9.918 9.914-5.46 0-9.914-4.453-9.914-9.914 0-5.461 4.453-9.918 9.914-9.918 1.684 0 3.246.464 4.637 1.207l5.18-7.2c.015-.957.054-1.824.085-2.343.02-.387.028-.336.028-.415-.399-.035-1.137-.03-2.254-.03h-3.602c-1.488 0-1.96.835-1.996 1.425-.016.297.063.512.297.715.234.203.703.426 1.625.375l.008.008a1.3 1.3 0 0 1 .957.32 1.298 1.298 0 0 1 .105 1.86c-.238.257-.566.41-.918.425-1.418.078-2.632-.273-3.48-1.004a3.512 3.512 0 0 1-1.192-2.828c.11-2.035 1.973-3.89 4.598-3.89h3.602c.566 0 1.047-.004 1.469-.004zm3.375 7L51.93 34.98l5.324-11.336c-.012-.004-.035-.02-.05-.02zm13.867 1.574l-5.32 11.324c.008 0 .027.012.035.012h3.09a9.892 9.892 0 0 1 4.621-7.035l-2.426-4.305zM33.02 30.617a7.291 7.291 0 0 0-7.308 7.313c0 4.05 3.258 7.308 7.308 7.308s7.313-3.258 7.313-7.308a7.265 7.265 0 0 0-2.074-5.082l-4.082 5.672v.004A1.305 1.305 0 1 1 32.059 37l4.058-5.642c-.945-.445-1.98-.738-3.102-.738zm33.961 0c-.488 0-.918.188-1.379.278l2.532 4.496c.43.765.582 1.757.105 2.574-.476.82-1.418 1.176-2.297 1.176h-6.027c.594 3.445 3.445 6.097 7.066 6.097a7.29 7.29 0 0 0 7.309-7.308 7.294 7.294 0 0 0-7.309-7.313zm-3.832 1.235c-1.66 1.047-2.8 2.687-3.195 4.683h5.836l-2.637-4.683z"/>
    </g>
  </g>
  <rect x="20" y="15" width="58px" height="34px" fill="#e9221c"/>
  <svg x="30" y="15" width="40px" height="40px" viewBox="15.62495231628418 6.3558831214904785 68.75006866455078 87.39411926269531">
    <g fill="#fff">
      <path d="M50 50c-5.8 0-11.367-2.305-15.469-6.406a21.877 21.877 0 0 1 30.938-30.938 21.878 21.878 0 0 1 6.406 15.469A21.903 21.903 0 0 1 50 50zm0-37.5a15.607 15.607 0 0 0-11.047 4.578c-2.934 2.93-4.578 6.902-4.578 11.047s1.644 8.117 4.578 11.047c2.93 2.934 6.902 4.578 11.047 4.578s8.117-1.644 11.047-4.578a15.607 15.607 0 0 0 4.578-11.047A15.641 15.641 0 0 0 50 12.5zm0 81.25a161.374 161.374 0 0 1-28.727-2.586 6.874 6.874 0 0 1-5.648-6.789 31.275 31.275 0 0 1 9.164-22.086 31.276 31.276 0 0 1 22.086-9.164h6.25a31.275 31.275 0 0 1 22.086 9.164 31.276 31.276 0 0 1 9.164 22.086 6.874 6.874 0 0 1-5.625 6.777A161.297 161.297 0 0 1 50 93.75zm-3.125-34.375a25.018 25.018 0 0 0-17.668 7.332 25.018 25.018 0 0 0-7.332 17.668.66.66 0 0 0 .512.625 155.529 155.529 0 0 0 55.246 0 .622.622 0 0 0 .492-.625 25.018 25.018 0 0 0-7.332-17.668 25.018 25.018 0 0 0-17.668-7.332z"/>
    </g>
  </svg>
</svg>
